<svg xmlns="http://www.w3.org/2000/svg" version="1.1" xmlns:xlink="http://www.w3.org/1999/xlink" width="1500" height="236" viewBox="0 0 1500 236"><svg xml:space="preserve" width="1500" height="236" data-version="2" data-id="lg_ytTZaj9bZtuOJIluoa" viewBox="0 0 570 236" x="0" y="0"><rect width="100%" height="100%" fill="transparent"></rect><path d="M54.596 153.234q-12.99 0-20.58 10.81-7.59 10.81-7.59 31.28 0 24.84 11.38 32.09 3.45 2.18 6.39 2.81 2.93.64 6.49.64 11.39 0 23.81-2.76l.34 1.61q-1.95.69-10.4 1.78-8.46 1.09-13.75 1.09-5.29 0-9.2-.75-3.91-.74-8.28-3.16-4.37-2.41-7.41-6.38-3.05-3.97-5.12-10.87-2.07-6.9-2.07-16.1 0-20.35 9.31-31.74 9.78-11.96 26.68-11.96 5.18 0 11.22.98 6.03.98 8.56 1.9l1.38 16.56-2.18.8-1.5-12.3q-9.31-6.33-17.48-6.33"></path><rect width="57.15" height="80.96" x="-28.57" y="-40.48" fill="none" rx="0" ry="0" transform="translate(47.68 192.6)"></rect><path d="m79.206 232.244.12-1.61 5.98-.81q.8-.11 1.38-1.49l24.84-76.71h7.59l26.45 78.32 7.93.46q0 .11-.11 1.72l-23 .12q0-1.04.11-1.61l5.98-.81q.92-.11.92-1.38l-6.32-18.74h-35.88l-6.1 20.01 13.34.69q0 .11-.11 1.72Zm33.12-78.43-16.44 53.59h34.38Z"></path><rect width="74.29" height="80.62" x="-37.15" y="-40.31" fill="none" rx="0" ry="0" transform="translate(116.85 192.43)"></rect><path d="M181.096 151.624q0 .12.12 1.73l-7.94.69v75.78h31.74l2.3-18.4 2.19.58-1.73 20.12h-26.68l-23.11.12.11-1.61 5.98-.81q1.15-.11 1.38-1.49v-72.8q-.23-1.38-1.38-1.49l-5.98-.58-.11-1.72Z"></path><rect width="51.52" height="80.62" x="-25.76" y="-40.31" fill="none" rx="0" ry="0" transform="translate(184.25 192.43)"></rect><path d="m216.176 153.354.11-1.73h49.22l-.11.35 1.49 16.21-2.3.92-1.84-15.18h-31.28v37.15h27.49q.57.11 1.03-.29.46-.4.46-1.09l.46-7.94 1.84-.23v19.67q-.11 0-1.72.11l-.46-7.93h-29.1v36.45h34.39l2.18-18.4 2.19.58-1.73 20.12h-29.21l-23.11.12.11-1.61 5.98-.81q1.15-.11 1.38-1.49v-72.8q-.23-1.38-1.38-1.49Z"></path><rect width="54.05" height="80.62" x="-27.02" y="-40.31" fill="none" rx="0" ry="0" transform="translate(243.7 192.43)"></rect><path d="m277.126 153.354.11-1.73h15.76l44.73 77.28-.57-73.25q-.46-1.15-1.27-1.27l-10.58-.92q-.11-.69-.11-1.72l21.85-.12q0 .12.11 1.73l-7.36.8v77.97h-8.39l-44.74-77.28.58 74.87 13.11.69q0 .11-.12 1.72l-23.11.12.11-1.61 5.98-.81q1.15-.11 1.38-1.49v-72.8q-.23-1.38-1.38-1.49Z"></path><rect width="70.03" height="80.62" x="-35.02" y="-40.31" fill="none" rx="0" ry="0" transform="translate(312.64 192.43)"></rect><path d="m355.436 153.354.12-1.73h28.06q15.52 0 24.9 9.03 9.37 9.03 9.37 29.38 0 20.13-6.56 30.13-5.75 8.74-17.94 11.04-5.4.92-12.65.92h-2.18l-23.12.12.12-1.61 5.98-.81q1.15-.11 1.38-1.49v-72.68q-.23-1.5-1.38-1.61Zm27.6 0h-12.3v77.05h9.43q5.52 0 9.37-.64 3.85-.63 8.05-2.99 4.2-2.35 6.61-6.49 5.87-9.78 5.87-29.67 0-20.7-8.17-29.33-7.47-7.93-18.86-7.93"></path><rect width="62.45" height="80.62" x="-31.23" y="-40.31" fill="none" rx="0" ry="0" transform="translate(387.16 192.43)"></rect><path d="m418.916 232.244.12-1.61 5.98-.81q.8-.11 1.38-1.49l24.84-76.71h7.59l26.45 78.32 7.93.46q0 .11-.11 1.72l-23 .12q0-1.04.11-1.61l5.98-.81q.92-.11.92-1.38l-6.32-18.74h-35.88l-6.1 20.01 13.34.69q0 .11-.11 1.72Zm33.12-78.43-16.44 53.59h34.38Z"></path><rect width="74.29" height="80.62" x="-37.15" y="-40.31" fill="none" rx="0" ry="0" transform="translate(456.56 192.43)"></rect><path d="m497.346 153.354.12-1.73h27.94q11.85 0 18.29 5.18 6.44 5.17 6.44 15.41 0 6.67-5.12 13.91-5.12 7.25-9.6 9.32l21.27 34.61 5.64.35q0 .11-.12 1.72l-12.53.12-21.85-35.42h-15.3v33.12l8.05.46q0 .11-.11 1.72l-23.12.12.12-1.61 5.98-.81q.8-.11 1.26-1.03v-73.6q-.34-1.04-1.26-1.15Zm27.49 0h-12.31v41.74h19.67q5.98-6.78 8.05-12.02 2.07-5.23 2.07-10.17 0-9.66-4.49-14.61-4.48-4.94-12.99-4.94"></path><rect width="64.98" height="80.62" x="-32.49" y="-40.31" fill="none" rx="0" ry="0" transform="translate(530.34 192.43)"></rect><path stroke="#000" stroke-width="3.43" d="M7.264 114.253h555.472"></path><path d="M325.39 89.092h-73.112a3.573 3.573 0 0 1-3.602-3.603V12.377a3.573 3.573 0 0 1 3.602-3.603h73.219a3.573 3.573 0 0 1 3.602 3.603v73.218a3.717 3.717 0 0 1-3.708 3.497m-73.112-78.199c-.847 0-1.483.636-1.483 1.484v73.218c0 .848.636 1.484 1.483 1.484h73.219c.848 0 1.483-.636 1.483-1.484V12.377c0-.848-.635-1.484-1.483-1.484z"></path><path d="M249.735 27.211h78.199v2.12h-78.199zm9.643-9.96c-.636 0-1.06-.424-1.06-1.06V3.476c0-.636.424-1.06 1.06-1.06s1.06.424 1.06 1.06v12.821c0 .53-.424.954-1.06.954m11.761 0c-.635 0-1.06-.424-1.06-1.06V3.476c0-.636.425-1.06 1.06-1.06s1.06.424 1.06 1.06v12.821c0 .53-.424.954-1.06.954m11.762 0c-.636 0-1.06-.424-1.06-1.06V3.476c0-.636.424-1.06 1.06-1.06s1.06.424 1.06 1.06v12.821c0 .53-.424.954-1.06.954m11.761 0c-.635 0-1.06-.424-1.06-1.06V3.476c0-.636.425-1.06 1.06-1.06s1.06.424 1.06 1.06v12.821c0 .53-.424.954-1.06.954m11.762 0c-.636 0-1.06-.424-1.06-1.06V3.476c0-.636.424-1.06 1.06-1.06s1.06.424 1.06 1.06v12.821c0 .53-.424.954-1.06.954m11.762 0c-.636 0-1.06-.424-1.06-1.06V3.476c0-.636.424-1.06 1.06-1.06s1.06.424 1.06 1.06v12.821c0 .53-.425.954-1.06.954m-50.755 48.53 4.026-.53c.424 2.331 1.272 3.92 2.437 4.98 1.166 1.06 2.543 1.483 4.133 1.483 1.907 0 3.496-.635 4.874-2.013 1.271-1.377 2.013-2.967 2.013-4.98 0-1.907-.636-3.39-1.801-4.662-1.272-1.166-2.755-1.801-4.662-1.801-.742 0-1.696.105-2.861.423l.424-3.602h.635c1.696 0 3.285-.424 4.663-1.378 1.377-.953 2.119-2.33 2.119-4.132 0-1.484-.53-2.755-1.484-3.709-1.06-.953-2.33-1.483-3.92-1.483s-2.861.53-3.92 1.483c-1.06.954-1.696 2.437-2.014 4.45l-4.238-.423c.53-2.755 1.589-4.874 3.39-6.358 1.802-1.483 3.92-2.225 6.57-2.225 1.801 0 3.497.424 4.98 1.165 1.483.742 2.649 1.802 3.497 3.18.847 1.377 1.165 2.754 1.165 4.238s-.424 2.755-1.165 3.92c-.742 1.166-1.908 2.12-3.391 2.755 1.907.424 3.497 1.378 4.556 2.861 1.06 1.378 1.59 3.179 1.59 5.298 0 2.861-1.06 5.298-3.18 7.311C283.75 74.046 281.1 75 277.816 75c-2.861 0-5.298-.847-7.205-2.649-1.908-1.801-2.861-3.814-3.18-6.57m41.112 8.794h-4.026v-25.96c-.954.954-2.225 1.907-3.815 2.755a31.458 31.458 0 0 1-4.238 2.12v-3.921c2.225-1.06 4.238-2.331 5.934-3.92 1.695-1.484 2.86-2.968 3.602-4.451h2.65v33.377z"></path></svg></svg>